<svg xmlns="http://www.w3.org/2000/svg" viewBox="0 0 540.23 560">
  <path d="m442.3 204.86 79.34-39.34L272.78 42.13l-2.67-1.32L18.59 165.52l79.34 39.34-79.34 39.34 79.34 39.34-79.34 39.34 79.34 39.34-79.34 39.34 101.08 50.12L239 132.18h62.23l119.33 319.5 101.08-50.12-79.34-39.34 79.34-39.34-79.34-39.34 79.34-39.34zm52.33 39.34-117.07 58.05-20.57-55.08 71.81-35.6 65.83 32.64Zm-383.2-32.64 71.81 35.6-20.57 55.08L45.6 244.19l65.83-32.64Zm0 78.68 47.01 23.31-20.57 55.09-92.27-45.75 65.83-32.64Zm1.65 144.78L45.6 401.56l65.83-32.64 22.22 11.02zm117.59-314.84-43.21 115.68L45.6 165.52 270.11 54.2l224.51 111.32-141.86 70.34-43.21-115.68h-78.89Zm263.96 281.38-67.48 33.46-20.57-55.08 22.22-11.02zm0-78.68-92.27 45.75-20.57-55.09 47.01-23.31 65.83 32.64Z"/>
  <path d="m318.93 344.72-48.81-160.47-48.81 160.47 48.81 24.2zm-35.24-74.61-13.58 6.73-13.58-6.73 13.58-44.63zM253 281.75l17.12 8.49 17.12-8.49 17.26 56.73-34.37 17.04-34.37-17.04 17.26-56.73Zm17.11 152.45-66.07-32.76-24.34 80.01 90.4 44.83 90.4-44.83-24.34-80.01-66.07 32.76Zm0 78.68-75.96-37.67 17.26-56.73 58.71 29.11 58.71-29.11 17.26 56.73-75.96 37.67Z"/>
</svg>
